Coordinates
version=1
nRows=49
nColumns=12
inDegrees=yes

Units are S.I. units (second, meters, Newtons, ...)
Angles are in degrees

endheader
time	SC_y	SC_z	SC_x	AC_y	AC_z	AC_x	GH_y	GH_z	GH_yy	EL_x	PS_y
       0.0              -27.49          22.87          8.279           59.9          8.445          1.143         -6.341          6.554          176.2          23.06          26.86
   0.02647              -27.49          22.87          8.289           59.9          8.442          1.141         -6.338           6.56          176.2          23.07          26.88
   0.05294              -27.49          22.87            8.3           59.9          8.439          1.138         -6.334          6.566          176.2          23.09           26.9
   0.07941              -27.49          22.86          8.312           59.9          8.436          1.135         -6.331          6.572          176.2           23.1          26.92
    0.1059              -27.49          22.86          8.325          59.91          8.432          1.132         -6.327          6.578          176.2          23.12          26.95
    0.1323              -27.49          22.86          8.338          59.91          8.429          1.128         -6.323          6.586          176.2          23.14          26.97
    0.1588              -27.49          22.86          8.352          59.91          8.424          1.125         -6.319          6.593          176.2          23.15           27.0
    0.1853              -27.49          22.85          8.368          59.91           8.42          1.121         -6.315          6.601          176.2          23.17          27.03
    0.2117              -27.49          22.85          8.384          59.91          8.416          1.117          -6.31           6.61          176.1           23.2          27.06
    0.2382              -27.49          22.85          8.401          59.91          8.411          1.113         -6.305          6.619          176.1          23.22          27.09
    0.2647              -27.49          22.84           8.42          59.91          8.405          1.108           -6.3          6.629          176.1          23.24          27.12
    0.2912              -27.49          22.84          8.441          59.91          8.399          1.103         -6.294           6.64          176.1          23.27          27.16
    0.3176              -27.49          22.83          8.462          59.91          8.393          1.097         -6.287          6.652          176.1           23.3           27.2
    0.3441              -27.49          22.83          8.486          59.91          8.387          1.091          -6.28          6.664          176.1          23.33          27.24
    0.3706              -27.49          22.82          8.512          59.92          8.379          1.085         -6.273          6.678          176.0          23.37          27.29
     0.397              -27.49          22.82          8.539          59.92          8.371          1.078         -6.265          6.692          176.0           23.4          27.34
    0.4235              -27.49          22.81           8.57          59.92          8.363          1.071         -6.256          6.708          176.0          23.44           27.4
      0.45               -27.5           22.8          8.602          59.92          8.354          1.062         -6.247          6.726          176.0          23.49          27.46
    0.4764               -27.5           22.8          8.638          59.92          8.343          1.054         -6.236          6.745          175.9          23.53          27.52
    0.5029               -27.5          22.79          8.678          59.93          8.332          1.044         -6.225          6.766          175.9          23.59           27.6
    0.5294               -27.5          22.78          8.721          59.93           8.32          1.033         -6.212          6.789          175.9          23.64          27.68
    0.5558               -27.5          22.77          8.768          59.93          8.307          1.021         -6.198          6.814          175.8          23.71          27.76
    0.5823               -27.5          22.76          8.821          59.94          8.292          1.008         -6.183          6.841          175.8          23.78          27.86
    0.6088               -27.5          22.75          8.879          59.94          8.275         0.9937         -6.166          6.872          175.7          23.85          27.97
    0.6352               -27.5          22.73          8.943          59.94          8.257         0.9777         -6.148          6.907          175.7          23.94          28.09
    0.6617              -27.51          22.72          9.015          59.95          8.236         0.9597         -6.127          6.945          175.6          24.04          28.22
    0.6882              -27.51           22.7          9.096          59.95          8.214         0.9396         -6.103          6.987          175.6          24.14          28.37
    0.7147              -27.51          22.68          9.187          59.96          8.188          0.917         -6.077          7.036          175.5          24.26          28.53
    0.7411              -27.51          22.66          9.289          59.96          8.159         0.8915         -6.047           7.09          175.4           24.4          28.72
    0.7676              -27.52          22.64          9.406          59.97          8.126         0.8625         -6.013          7.152          175.3          24.55          28.94
    0.7941              -27.52          22.61          9.539          59.98          8.088         0.8294         -5.975          7.222          175.2          24.73          29.18
    0.8205              -27.52          22.58          9.691          59.99          8.045         0.7914          -5.93          7.303          175.1          24.93          29.46
     0.847              -27.53          22.54          9.867           60.0          7.995         0.7476         -5.879          7.397          174.9          25.17          29.79
    0.8735              -27.53           22.5          10.07          60.01          7.937         0.6966          -5.82          7.505          174.8          25.44          30.16
    0.8999              -27.54          22.45          10.31          60.03          7.869          0.637          -5.75          7.632          174.6          25.76           30.6
    0.9264              -27.54          22.39          10.59          60.04          7.789         0.5667         -5.668          7.782          174.4          26.13          31.12
    0.9529              -27.55          22.32          10.93          60.06          7.694         0.4832         -5.571           7.96          174.1          26.58          31.74
    0.9793              -27.56          22.24          11.33          60.09           7.58         0.3831         -5.454          8.173          173.8          27.11          32.48
     1.006              -27.58          22.13          11.82          60.12          7.442          0.262         -5.312          8.431          173.4          27.76          33.38
     1.032              -27.59          22.01          12.41          60.15          7.273          0.114          -5.14          8.746          172.9          28.55          34.47
     1.059              -27.61          21.86          13.15           60.2          7.065       -0.06861         -4.927          9.135          172.3          29.53          35.82
     1.085              -27.63          21.67          14.06          60.26          6.806        -0.2963         -4.661           9.62          171.6          30.74           37.5
     1.112              -27.66          21.43          15.21          60.33          6.479        -0.5832         -4.326          10.23          170.6          32.27          39.62
     1.138               -27.7          21.12          16.68          60.42          6.064        -0.9478           -3.9          11.01          169.5          34.22          42.32
     1.165              -27.74          20.73          18.55          60.53          5.532         -1.415         -3.356           12.0          167.9          36.71          45.77
     1.191               -27.8          20.23          20.96          60.68           4.85         -2.014         -2.657          13.28          166.0          39.91           50.2
     1.218              -27.88          19.59          24.03          60.87          3.978         -2.779         -1.764          14.91          163.5           44.0          55.86
     1.244              -27.97          18.79          27.89           61.1          2.882         -3.741        -0.6409          16.96          160.4          49.13          62.97
      1.27              -28.09          17.81           32.6          61.39          1.547         -4.913         0.7273          19.45          156.6          55.39          71.64
